<svg xmlns="http://www.w3.org/2000/svg" viewBox="0 0 100 100" fill="none" shape-rendering="auto"><metadata xmlns:rdf="http://www.w3.org/1999/02/22-rdf-syntax-ns#" xmlns:xsi="http://www.w3.org/2001/XMLSchema-instance" xmlns:dc="http://purl.org/dc/elements/1.1/" xmlns:dcterms="http://purl.org/dc/terms/"><rdf:RDF><rdf:Description><dc:title>Thumbs</dc:title><dc:creator>DiceBear</dc:creator><dc:source xsi:type="dcterms:URI">https://www.dicebear.com</dc:source><dcterms:license xsi:type="dcterms:URI">https://creativecommons.org/publicdomain/zero/1.0/</dcterms:license><dc:rights>„Thumbs” (https://www.dicebear.com) by „DiceBear”, licensed under „CC0 1.0” (https://creativecommons.org/publicdomain/zero/1.0/)</dc:rights></rdf:Description></rdf:RDF></metadata><mask id="viewboxMask"><rect width="100" height="100" rx="0" ry="0" x="0" y="0" fill="#fff" /></mask><g mask="url(#viewboxMask)"><rect fill="#0a5b83" width="100" height="100" x="0" y="0" /><g transform="translate(0, 0) rotate(-7 50 70)"><path d="M95 53.33C95 29.4 74.85 10 50 10S5 29.4 5 53.33V140h90V53.33Z" fill="#69d2e7"/><g transform="translate(29 33)"><g transform="translate(-1, -12) rotate(-15 21 21)"><g transform="translate(0 2)"><path d="M.25 8.12C1.66 11.86 12 16 12 16s5.17-9.58 3.76-13.32c0 0-1.41-3.74-5.3-2.38-3.87 1.36-2.7 4.48-2.7 4.48S6.6 1.66 2.73 3.02C-1.16 4.38.25 8.12.25 8.12ZM26.24 2.68C24.84 6.42 30 16 30 16s10.34-4.14 11.75-7.88c0 0 1.41-3.74-2.47-5.1-3.87-1.36-5.05 1.76-5.05 1.76s1.18-3.12-2.7-4.48c-3.88-1.36-5.29 2.38-5.29 2.38Z" fill="#ffffff"/></g><g transform="translate(6 26)"><path d="M15.5 10c-5.07 0-9.3-5.23-8.37-5.88.93-.65 3.45 2.15 8.37 2.15 4.92 0 7.44-2.88 8.37-2.15.93.73-3.3 5.88-8.37 5.88Z" fill="#ffffff"/></g></g></g></g></g></svg>